<?xml version="1.0" encoding="UTF-8" standalone="no"?>
<!-- Created with Inkscape (http://www.inkscape.org/) -->

<svg
   width="210mm"
   height="297mm"
   viewBox="0 0 210 297"
   version="1.1"
   id="svg1"
   xml:space="preserve"
   inkscape:version="1.4 (86a8ad7, 2024-10-11)"
   sodipodi:docname="drawing.svg"
   xmlns:inkscape="http://www.inkscape.org/namespaces/inkscape"
   xmlns:sodipodi="http://sodipodi.sourceforge.net/DTD/sodipodi-0.dtd"
   xmlns="http://www.w3.org/2000/svg"
   xmlns:svg="http://www.w3.org/2000/svg"><sodipodi:namedview
     id="namedview1"
     pagecolor="#ffffff"
     bordercolor="#000000"
     borderopacity="0.25"
     inkscape:showpageshadow="2"
     inkscape:pageopacity="0.0"
     inkscape:pagecheckerboard="0"
     inkscape:deskcolor="#d1d1d1"
     inkscape:document-units="mm"
     inkscape:zoom="0.71891835"
     inkscape:cx="349.13561"
     inkscape:cy="484.75602"
     inkscape:window-width="1920"
     inkscape:window-height="1009"
     inkscape:window-x="-8"
     inkscape:window-y="-8"
     inkscape:window-maximized="1"
     inkscape:current-layer="svg1"
     inkscape:export-bgcolor="#ffffff00" /><defs
     id="defs1"><filter
       style="color-interpolation-filters:sRGB;"
       inkscape:label="Colorize"
       id="filter33"
       x="0"
       y="0"
       width="1"
       height="1"><feComposite
         in2="SourceGraphic"
         operator="arithmetic"
         k1="2.79635"
         k2="6.68693"
         result="composite1"
         id="feComposite32" /><feColorMatrix
         in="composite1"
         values="1"
         type="saturate"
         result="colormatrix1"
         id="feColorMatrix32" /><feFlood
         flood-opacity="1"
         flood-color="rgb(255,191,38)"
         result="flood1"
         id="feFlood32" /><feBlend
         in="flood1"
         in2="colormatrix1"
         mode="multiply"
         result="blend1"
         id="feBlend32" /><feBlend
         in2="blend1"
         mode="screen"
         result="blend2"
         id="feBlend33" /><feColorMatrix
         in="blend2"
         values="1"
         type="saturate"
         result="colormatrix2"
         id="feColorMatrix33" /><feComposite
         in="colormatrix2"
         in2="SourceGraphic"
         operator="in"
         k2="1"
         result="fbSourceGraphic"
         id="feComposite33" /><feColorMatrix
         result="fbSourceGraphicAlpha"
         in="fbSourceGraphic"
         values="0 0 0 -1 0 0 0 0 -1 0 0 0 0 -1 0 0 0 0 1 0"
         id="feColorMatrix34" /><feComposite
         id="feComposite34"
         in2="fbSourceGraphic"
         operator="arithmetic"
         k1="2.79635"
         k2="6.68693"
         result="composite1"
         in="fbSourceGraphic" /><feColorMatrix
         id="feColorMatrix35"
         in="composite1"
         values="1"
         type="saturate"
         result="colormatrix1" /><feFlood
         id="feFlood35"
         flood-opacity="1"
         flood-color="rgb(255,191,38)"
         result="flood1" /><feBlend
         id="feBlend35"
         in="flood1"
         in2="colormatrix1"
         mode="multiply"
         result="blend1" /><feBlend
         id="feBlend36"
         in2="blend1"
         mode="screen"
         result="blend2" /><feColorMatrix
         id="feColorMatrix36"
         in="blend2"
         values="1"
         type="saturate"
         result="colormatrix2" /><feComposite
         id="feComposite36"
         in="colormatrix2"
         in2="fbSourceGraphic"
         operator="in"
         k2="1"
         result="fbSourceGraphic" /><feColorMatrix
         result="fbSourceGraphicAlpha"
         in="fbSourceGraphic"
         values="0 0 0 -1 0 0 0 0 -1 0 0 0 0 -1 0 0 0 0 1 0"
         id="feColorMatrix37" /><feComposite
         id="feComposite37"
         in2="fbSourceGraphic"
         operator="arithmetic"
         k1="2.79635"
         k2="6.68693"
         result="composite1"
         in="fbSourceGraphic" /><feColorMatrix
         id="feColorMatrix38"
         in="composite1"
         values="1"
         type="saturate"
         result="colormatrix1" /><feFlood
         id="feFlood38"
         flood-opacity="1"
         flood-color="rgb(255,191,38)"
         result="flood1" /><feBlend
         id="feBlend38"
         in="flood1"
         in2="colormatrix1"
         mode="multiply"
         result="blend1" /><feBlend
         id="feBlend39"
         in2="blend1"
         mode="screen"
         result="blend2" /><feColorMatrix
         id="feColorMatrix39"
         in="blend2"
         values="1"
         type="saturate"
         result="colormatrix2" /><feComposite
         id="feComposite39"
         in="colormatrix2"
         in2="fbSourceGraphic"
         operator="in"
         k2="1"
         result="fbSourceGraphic" /><feColorMatrix
         result="fbSourceGraphicAlpha"
         in="fbSourceGraphic"
         values="0 0 0 -1 0 0 0 0 -1 0 0 0 0 -1 0 0 0 0 1 0"
         id="feColorMatrix40" /><feComposite
         id="feComposite40"
         in2="fbSourceGraphic"
         operator="arithmetic"
         k1="2.79635"
         k2="6.68693"
         result="composite1"
         in="fbSourceGraphic" /><feColorMatrix
         id="feColorMatrix41"
         in="composite1"
         values="1"
         type="saturate"
         result="colormatrix1" /><feFlood
         id="feFlood41"
         flood-opacity="1"
         flood-color="rgb(255,191,38)"
         result="flood1" /><feBlend
         id="feBlend41"
         in="flood1"
         in2="colormatrix1"
         mode="multiply"
         result="blend1" /><feBlend
         id="feBlend42"
         in2="blend1"
         mode="screen"
         result="blend2" /><feColorMatrix
         id="feColorMatrix42"
         in="blend2"
         values="1"
         type="saturate"
         result="colormatrix2" /><feComposite
         id="feComposite42"
         in="colormatrix2"
         in2="fbSourceGraphic"
         operator="in"
         k2="1"
         result="fbSourceGraphic" /><feColorMatrix
         result="fbSourceGraphicAlpha"
         in="fbSourceGraphic"
         values="0 0 0 -1 0 0 0 0 -1 0 0 0 0 -1 0 0 0 0 1 0"
         id="feColorMatrix43" /><feComposite
         id="feComposite43"
         in2="fbSourceGraphic"
         operator="arithmetic"
         k1="2.79635"
         k2="6.68693"
         result="composite1"
         in="fbSourceGraphic" /><feColorMatrix
         id="feColorMatrix44"
         in="composite1"
         values="1"
         type="saturate"
         result="colormatrix1" /><feFlood
         id="feFlood44"
         flood-opacity="1"
         flood-color="rgb(255,191,38)"
         result="flood1" /><feBlend
         id="feBlend44"
         in="flood1"
         in2="colormatrix1"
         mode="multiply"
         result="blend1" /><feBlend
         id="feBlend45"
         in2="blend1"
         mode="screen"
         result="blend2" /><feColorMatrix
         id="feColorMatrix45"
         in="blend2"
         values="1"
         type="saturate"
         result="colormatrix2" /><feComposite
         id="feComposite45"
         in="colormatrix2"
         in2="fbSourceGraphic"
         operator="in"
         k2="1"
         result="fbSourceGraphic" /><feColorMatrix
         result="fbSourceGraphicAlpha"
         in="fbSourceGraphic"
         values="0 0 0 -1 0 0 0 0 -1 0 0 0 0 -1 0 0 0 0 1 0"
         id="feColorMatrix46" /><feComposite
         id="feComposite46"
         in2="fbSourceGraphic"
         operator="arithmetic"
         k1="2.79635"
         k2="6.68693"
         result="composite1"
         in="fbSourceGraphic" /><feColorMatrix
         id="feColorMatrix47"
         in="composite1"
         values="1"
         type="saturate"
         result="colormatrix1" /><feFlood
         id="feFlood47"
         flood-opacity="1"
         flood-color="rgb(255,191,38)"
         result="flood1" /><feBlend
         id="feBlend47"
         in="flood1"
         in2="colormatrix1"
         mode="multiply"
         result="blend1" /><feBlend
         id="feBlend48"
         in2="blend1"
         mode="screen"
         result="blend2" /><feColorMatrix
         id="feColorMatrix48"
         in="blend2"
         values="1"
         type="saturate"
         result="colormatrix2" /><feComposite
         id="feComposite48"
         in="colormatrix2"
         in2="fbSourceGraphic"
         operator="in"
         k2="1"
         result="fbSourceGraphic" /><feColorMatrix
         result="fbSourceGraphicAlpha"
         in="fbSourceGraphic"
         values="0 0 0 -1 0 0 0 0 -1 0 0 0 0 -1 0 0 0 0 1 0"
         id="feColorMatrix49" /><feComposite
         id="feComposite49"
         in2="fbSourceGraphic"
         operator="arithmetic"
         k1="2.79635"
         k2="6.68693"
         result="composite1"
         in="fbSourceGraphic" /><feColorMatrix
         id="feColorMatrix50"
         in="composite1"
         values="1"
         type="saturate"
         result="colormatrix1" /><feFlood
         id="feFlood50"
         flood-opacity="1"
         flood-color="rgb(255,191,38)"
         result="flood1" /><feBlend
         id="feBlend50"
         in="flood1"
         in2="colormatrix1"
         mode="multiply"
         result="blend1" /><feBlend
         id="feBlend51"
         in2="blend1"
         mode="screen"
         result="blend2" /><feColorMatrix
         id="feColorMatrix51"
         in="blend2"
         values="1"
         type="saturate"
         result="colormatrix2" /><feComposite
         id="feComposite51"
         in="colormatrix2"
         in2="fbSourceGraphic"
         operator="in"
         k2="1"
         result="fbSourceGraphic" /><feColorMatrix
         result="fbSourceGraphicAlpha"
         in="fbSourceGraphic"
         values="0 0 0 -1 0 0 0 0 -1 0 0 0 0 -1 0 0 0 0 1 0"
         id="feColorMatrix52" /><feComposite
         id="feComposite52"
         in2="fbSourceGraphic"
         operator="arithmetic"
         k1="2.79635"
         k2="6.68693"
         result="composite1"
         in="fbSourceGraphic" /><feColorMatrix
         id="feColorMatrix53"
         in="composite1"
         values="1"
         type="saturate"
         result="colormatrix1" /><feFlood
         id="feFlood53"
         flood-opacity="1"
         flood-color="rgb(255,191,38)"
         result="flood1" /><feBlend
         id="feBlend53"
         in="flood1"
         in2="colormatrix1"
         mode="multiply"
         result="blend1" /><feBlend
         id="feBlend54"
         in2="blend1"
         mode="screen"
         result="blend2" /><feColorMatrix
         id="feColorMatrix54"
         in="blend2"
         values="1"
         type="saturate"
         result="colormatrix2" /><feComposite
         id="feComposite54"
         in="colormatrix2"
         in2="fbSourceGraphic"
         operator="in"
         k2="1"
         result="fbSourceGraphic" /><feColorMatrix
         result="fbSourceGraphicAlpha"
         in="fbSourceGraphic"
         values="0 0 0 -1 0 0 0 0 -1 0 0 0 0 -1 0 0 0 0 1 0"
         id="feColorMatrix55" /><feComposite
         id="feComposite55"
         in2="fbSourceGraphic"
         operator="arithmetic"
         k1="2.79635"
         k2="6.68693"
         result="composite1"
         in="fbSourceGraphic" /><feColorMatrix
         id="feColorMatrix56"
         in="composite1"
         values="1"
         type="saturate"
         result="colormatrix1" /><feFlood
         id="feFlood56"
         flood-opacity="1"
         flood-color="rgb(255,191,38)"
         result="flood1" /><feBlend
         id="feBlend56"
         in="flood1"
         in2="colormatrix1"
         mode="multiply"
         result="blend1" /><feBlend
         id="feBlend57"
         in2="blend1"
         mode="screen"
         result="blend2" /><feColorMatrix
         id="feColorMatrix57"
         in="blend2"
         values="1"
         type="saturate"
         result="colormatrix2" /><feComposite
         id="feComposite57"
         in="colormatrix2"
         in2="fbSourceGraphic"
         operator="in"
         k2="1"
         result="fbSourceGraphic" /><feColorMatrix
         result="fbSourceGraphicAlpha"
         in="fbSourceGraphic"
         values="0 0 0 -1 0 0 0 0 -1 0 0 0 0 -1 0 0 0 0 1 0"
         id="feColorMatrix58" /><feComposite
         id="feComposite58"
         in2="fbSourceGraphic"
         operator="arithmetic"
         k1="2.79635"
         k2="6.68693"
         result="composite1"
         in="fbSourceGraphic" /><feColorMatrix
         id="feColorMatrix59"
         in="composite1"
         values="1"
         type="saturate"
         result="colormatrix1" /><feFlood
         id="feFlood59"
         flood-opacity="1"
         flood-color="rgb(255,191,38)"
         result="flood1" /><feBlend
         id="feBlend59"
         in="flood1"
         in2="colormatrix1"
         mode="multiply"
         result="blend1" /><feBlend
         id="feBlend60"
         in2="blend1"
         mode="screen"
         result="blend2" /><feColorMatrix
         id="feColorMatrix60"
         in="blend2"
         values="1"
         type="saturate"
         result="colormatrix2" /><feComposite
         id="feComposite60"
         in="colormatrix2"
         in2="fbSourceGraphic"
         operator="in"
         k2="1"
         result="fbSourceGraphic" /><feColorMatrix
         result="fbSourceGraphicAlpha"
         in="fbSourceGraphic"
         values="0 0 0 -1 0 0 0 0 -1 0 0 0 0 -1 0 0 0 0 1 0"
         id="feColorMatrix73" /><feComposite
         id="feComposite73"
         in2="fbSourceGraphic"
         operator="arithmetic"
         k1="2.79635"
         k2="6.68693"
         result="composite1"
         in="fbSourceGraphic" /><feColorMatrix
         id="feColorMatrix74"
         in="composite1"
         values="1"
         type="saturate"
         result="colormatrix1" /><feFlood
         id="feFlood74"
         flood-opacity="0.611765"
         flood-color="rgb(56,105,70)"
         result="flood1" /><feBlend
         id="feBlend74"
         in="flood1"
         in2="colormatrix1"
         mode="multiply"
         result="blend1" /><feBlend
         id="feBlend75"
         in2="blend1"
         mode="screen"
         result="blend2" /><feColorMatrix
         id="feColorMatrix75"
         in="blend2"
         values="1"
         type="saturate"
         result="colormatrix2" /><feComposite
         id="feComposite75"
         in="colormatrix2"
         in2="fbSourceGraphic"
         operator="in"
         k2="1"
         result="fbSourceGraphic" /><feColorMatrix
         result="fbSourceGraphicAlpha"
         in="fbSourceGraphic"
         values="0 0 0 -1 0 0 0 0 -1 0 0 0 0 -1 0 0 0 0 1 0"
         id="feColorMatrix76" /><feComposite
         id="feComposite76"
         in2="fbSourceGraphic"
         operator="arithmetic"
         k1="2.09726"
         k2="6.68693"
         result="composite1"
         in="fbSourceGraphic" /><feColorMatrix
         id="feColorMatrix77"
         in="composite1"
         values="1"
         type="saturate"
         result="colormatrix1" /><feFlood
         id="feFlood77"
         flood-opacity="0.611765"
         flood-color="rgb(101,173,109)"
         result="flood1" /><feBlend
         id="feBlend77"
         in="flood1"
         in2="colormatrix1"
         mode="multiply"
         result="blend1" /><feBlend
         id="feBlend78"
         in2="blend1"
         mode="screen"
         result="blend2" /><feColorMatrix
         id="feColorMatrix78"
         in="blend2"
         values="1"
         type="saturate"
         result="colormatrix2" /><feComposite
         id="feComposite78"
         in="colormatrix2"
         in2="fbSourceGraphic"
         operator="in"
         k2="1"
         result="fbSourceGraphic" /><feColorMatrix
         result="fbSourceGraphicAlpha"
         in="fbSourceGraphic"
         values="0 0 0 -1 0 0 0 0 -1 0 0 0 0 -1 0 0 0 0 1 0"
         id="feColorMatrix79" /><feComposite
         id="feComposite79"
         in2="fbSourceGraphic"
         operator="arithmetic"
         k1="2.09726"
         k2="6.68693"
         result="composite1"
         in="fbSourceGraphic" /><feColorMatrix
         id="feColorMatrix80"
         in="composite1"
         values="1"
         type="saturate"
         result="colormatrix1" /><feFlood
         id="feFlood80"
         flood-opacity="0.611765"
         flood-color="rgb(101,173,109)"
         result="flood1" /><feBlend
         id="feBlend80"
         in="flood1"
         in2="colormatrix1"
         mode="multiply"
         result="blend1" /><feBlend
         id="feBlend81"
         in2="blend1"
         mode="screen"
         result="blend2" /><feColorMatrix
         id="feColorMatrix81"
         in="blend2"
         values="1"
         type="saturate"
         result="colormatrix2" /><feComposite
         id="feComposite81"
         in="colormatrix2"
         in2="fbSourceGraphic"
         operator="in"
         k2="1"
         result="composite2" /></filter></defs><g
     id="g148"
     transform="matrix(0.84816005,0,0,0.84050444,18.926157,5.2748952)"><path
       style="fill:#fbe5a0"
       d="m 104.63029,211.13365 c -3.83262,-0.36833 -6.571862,-1.88005 -10.366724,-5.72117 -1.089814,-1.10309 -6.032598,-6.0342 -10.983965,-10.95801 -4.951367,-4.92381 -10.832696,-10.77576 -13.06962,-13.00432 -2.236924,-2.22856 -6.092808,-6.0701 -8.568632,-8.53675 -2.475823,-2.46666 -6.307416,-6.28284 -8.514652,-8.48041 -24.269275,-24.16303 -22.70719,-22.53362 -23.860292,-24.88862 -2.521294,-5.14927 -1.986996,-10.97789 1.42578,-15.55374 0.506434,-0.67903 6.674843,-7.02885 24.216142,-24.928348 2.30113,-2.34812 12.396434,-12.662198 22.43401,-22.920175 10.037575,-10.257976 18.560711,-18.893439 18.940301,-19.189916 4.492852,-3.509124 10.393492,-4.093598 15.522912,-1.537584 2.09118,1.042046 2.28807,1.215345 9.05783,7.972581 9.56824,9.550547 13.57594,13.543479 21.04084,20.963318 4.32499,4.298879 9.91358,9.860382 12.41909,12.358897 6.42337,6.405427 11.89969,11.859927 16.81188,16.744897 9.94802,9.89289 9.85194,9.78656 11.01535,12.19132 2.02369,4.18296 2.02369,8.73558 0,12.91854 -1.14727,2.37139 -0.66204,1.83107 -12.37532,13.7805 -2.30034,2.34672 -7.6226,7.78684 -11.82724,12.08916 -37.19223,38.05627 -42.17675,43.12352 -43.10059,43.81593 -2.20817,1.65501 -4.71888,2.62536 -7.49824,2.89795 -1.21375,0.11905 -1.34072,0.11839 -2.71886,-0.014 z"
       id="path157" /><path
       style="fill:#fbd55e"
       d="m 103.65522,210.86807 c -1.82551,-0.3093 -4.071796,-1.21508 -5.624558,-2.268 -0.734617,-0.49814 -2.288957,-1.77445 -2.413032,-1.98139 -0.0449,-0.0749 -13.894483,-13.8848 -30.776855,-30.6887 C 29.416253,140.67013 31.49811,142.7602 30.654999,141.6094 c -3.631593,-4.9569 -3.768865,-11.73877 -0.341312,-16.86237 0.873614,-1.3059 -2.686891,2.3594 49.041289,-50.484715 10.611768,-10.840696 16.659277,-16.939902 17.215491,-17.362656 5.084913,-3.864824 12.142253,-3.900726 17.282363,-0.08792 0.48468,0.359525 2.3455,2.115148 4.13515,3.901384 1.78965,1.786237 9.03774,9.003422 16.10686,16.03819 11.49832,11.442442 19.77966,19.687086 34.38299,34.230607 12.02073,11.9715 12.30821,12.27969 13.43588,14.40365 2.09583,3.94747 2.13416,9.1521 0.0974,13.22886 -1.11335,2.22853 -0.56303,1.62219 -13.15689,14.49606 -4.23818,4.3324 -13.38867,13.68646 -20.33443,20.78679 -36.8376,37.65736 -32.96216,33.74519 -34.33413,34.6596 -3.15208,2.10084 -6.90745,2.92505 -10.53047,2.31119 z"
       id="path156" /><path
       style="fill:#fcc006"
       d="m 103.83347,210.77686 c -2.90554,-0.52074 -6.081091,-2.11607 -7.79502,-3.91607 C 95.941066,206.75852 81.389621,192.24926 63.701906,174.618 46.01419,156.98674 31.390891,142.37424 31.205685,142.14576 27.03081,136.99558 26.87265,129.56066 30.824911,124.24598 31.476661,123.36956 32.16058,122.65943 44.013193,110.55226 55.179439,99.146207 75.865669,77.998801 84.840682,68.814573 97.163049,56.20496 96.508677,56.820299 98.856507,55.634782 c 5.953233,-3.006032 11.980043,-1.792027 17.334273,3.491714 5.31095,5.241018 62.3391,62.024324 63.10991,62.838934 5.23449,5.53202 5.49736,13.83945 0.6203,19.60292 -0.28005,0.33095 -2.25058,2.37407 -4.37896,4.54027 -2.12838,2.1662 -7.45401,7.60633 -11.83473,12.08916 -4.38072,4.48284 -9.89685,10.11989 -12.25806,12.52678 -3.80261,3.87617 -7.85521,8.01978 -23.96658,24.5048 -13.44036,13.75207 -13.389,13.70605 -16.59905,14.87608 -1.98753,0.72444 -5.10026,1.02088 -7.05014,0.67142 z"
       id="path155" /><path
       style="fill:#f6bb06"
       d="m 104.64695,208.40961 c -2.29659,-0.3047 -4.44057,-1.23504 -6.158581,-2.67242 -0.404466,-0.33839 -0.705892,-0.66341 -0.669836,-0.72225 0.03606,-0.0589 0.02085,-0.0935 -0.03378,-0.0769 -0.120418,0.0364 -2.488183,-2.26044 -7.801504,-7.56797 -6.271698,-6.26486 -14.338053,-14.30184 -29.155861,-29.04968 -4.593309,-4.57162 -10.401434,-10.35655 -12.906945,-12.85541 -2.505511,-2.49885 -6.286181,-6.26629 -8.401489,-8.37209 -5.881934,-5.85551 -6.346452,-6.33399 -6.869907,-7.07637 -3.005858,-4.26302 -3.011903,-9.90696 -0.01515,-14.14763 0.535397,-0.75764 0.614106,-0.84068 6.377402,-6.72836 2.385493,-2.43698 5.902831,-6.03144 7.816305,-7.98769 1.913474,-1.95626 5.261115,-5.37787 7.439202,-7.60359 2.178087,-2.22572 5.693693,-5.819115 7.812458,-7.985317 36.396656,-37.211608 35.164926,-35.959245 36.00563,-36.608822 4.186606,-3.234821 10.433336,-3.15863 14.584336,0.177885 0.38543,0.309799 4.20412,4.054923 8.48598,8.322496 4.28186,4.267574 9.76085,9.7285 12.17554,12.135392 5.02081,5.0046 10.63638,10.595532 16.81671,16.742942 2.35638,2.34382 6.35869,6.329344 8.89402,8.856704 7.59349,7.56962 12.56826,12.52608 15.81816,15.75994 1.69052,1.68218 3.36511,3.44697 3.72133,3.92176 2.72916,3.63762 3.14937,8.59353 1.0796,12.7329 -0.85626,1.71245 -0.70177,1.54249 -10.36458,11.4027 -2.15232,2.19629 -7.37633,7.53795 -11.60891,11.87035 -4.23259,4.33241 -9.48267,9.69868 -11.66686,11.92506 -2.18419,2.22637 -5.72432,5.8437 -7.86697,8.0385 -4.49565,4.60508 -10.997,11.24597 -16.54816,16.90333 -2.12679,2.16748 -4.61603,4.72187 -5.53165,5.67643 -3.94502,4.1128 -7.2266,5.54534 -11.42649,4.98811 z m 3.14909,-3.33637 c 2.74105,-0.57109 2.19655,-0.0828 17.07483,-15.31235 2.35138,-2.4069 6.08522,-6.22237 8.29744,-8.47883 11.62583,-11.85837 19.64368,-20.0591 19.7015,-20.15085 0.0357,-0.0567 1.96368,-2.03274 4.28431,-4.39115 2.32064,-2.35842 5.95204,-6.06052 8.06979,-8.2269 2.11776,-2.16637 5.36762,-5.48907 7.22193,-7.38376 4.67788,-4.77978 5.28622,-5.81738 5.29104,-9.02451 0.004,-2.87259 -0.88186,-4.62068 -3.79908,-7.49419 -1.45562,-1.4338 -14.19366,-14.10506 -22.32608,-22.20903 -2.20723,-2.19951 -6.06297,-6.040919 -8.56831,-8.536463 -2.50533,-2.495543 -6.67847,-6.653838 -9.27364,-9.240654 -2.59517,-2.586816 -6.42638,-6.402287 -8.51379,-8.478824 -2.08741,-2.076536 -5.79687,-5.772818 -8.24324,-8.213958 -7.23327,-7.217813 -7.11995,-7.124066 -9.45934,-7.825333 -3.57736,-1.072369 -6.20865,-0.03132 -10.175753,4.025959 -1.194176,1.22132 -5.659846,5.789893 -9.923712,10.152384 -4.263866,4.362492 -9.706397,9.925694 -12.094513,12.362672 -2.388117,2.436978 -6.147715,6.277064 -8.354664,8.533525 -2.206949,2.256461 -6.089424,6.219632 -8.627724,8.807032 -2.538299,2.58741 -4.77795,4.8767 -4.977003,5.0873 -0.199053,0.2106 -3.514606,3.6076 -7.367896,7.54889 -9.810861,10.0349 -10.751647,11.02335 -11.163434,11.72902 -1.603754,2.74831 -1.714427,5.63797 -0.325957,8.51075 l 0.555211,1.14874 4.404664,4.4331 c 2.422565,2.4382 8.016505,8.02478 12.430977,12.41462 4.414472,4.38984 9.954255,9.90554 12.310628,12.25712 4.235028,4.22639 8.809084,8.78319 17.352984,17.28748 2.415366,2.40417 6.320058,6.29661 8.677095,8.64987 7.701111,7.68876 10.071187,10.01512 10.653637,10.45715 1.92986,1.46458 4.51324,2.05181 6.8681,1.56119 z"
       id="path154" /><path
       style="fill:#b38905"
       d="m 104.87859,208.29692 c -3.1955,-0.3495 -5.051614,-1.39579 -8.420651,-4.74672 -32.495012,-32.32037 -62.573814,-62.30995 -63.093168,-62.90601 -2.843108,-3.263 -3.620442,-8.0474 -1.979201,-12.18175 0.822039,-2.07075 1.238253,-2.57242 7.086042,-8.54094 2.750999,-2.80779 8.444481,-8.62457 12.652182,-12.92617 4.207701,-4.30161 13.383729,-13.680792 20.391173,-20.842639 7.007444,-7.161847 15.693731,-16.043433 19.30286,-19.736859 4.104202,-4.200062 6.887058,-6.961239 7.429762,-7.371884 4.347031,-3.289244 10.582681,-3.087902 14.616981,0.471965 0.55673,0.491258 44.17768,43.867977 62.48189,62.132047 4.43013,4.42041 5.42633,6.34016 5.42633,10.45693 0,4.12927 -0.86097,5.79425 -5.40275,10.4481 -3.27516,3.35597 -12.45689,12.74588 -30.64872,31.34361 -6.70957,6.85926 -16.02292,16.38563 -20.69634,21.16971 -9.84269,10.07572 -10.30972,10.53919 -11.2772,11.19125 -2.38681,1.60867 -5.18255,2.3332 -7.86919,2.03936 z m 3.2637,-3.16323 c 1.73569,-0.41973 2.99924,-1.16391 4.49912,-2.64982 0.50373,-0.49903 4.40389,-4.47664 8.66701,-8.83914 4.26313,-4.36249 13.48265,-13.79039 20.48783,-20.9509 7.00519,-7.1605 16.17796,-16.53917 20.38395,-20.84149 4.20598,-4.30232 9.01983,-9.22551 10.69743,-10.94042 3.0187,-3.08582 3.72161,-3.93309 4.23573,-5.10571 1.35132,-3.08205 0.87937,-6.80832 -1.17995,-9.31648 -0.9608,-1.17022 -64.95342,-64.805802 -65.60604,-65.240012 -3.27455,-2.17866 -7.27724,-2.127194 -10.3072,0.13253 -0.337492,0.251699 -8.78139,8.807256 -18.764218,19.01235 -9.982828,10.205095 -20.372545,20.820762 -23.08826,23.590362 -24.573963,25.0616 -23.126204,23.53264 -23.914866,25.25631 -1.678165,3.66774 -0.88085,7.20288 2.381916,10.56096 3.714469,3.82297 63.619518,63.39742 64.165028,63.81091 2.03603,1.54331 4.84387,2.12478 7.34252,1.52055 z"
       id="path153" /><path
       style="fill:#937004"
       d="m 104.64695,208.18904 c -1.87324,-0.25448 -3.99518,-1.11314 -5.446404,-2.20393 -1.035358,-0.77821 -65.541956,-65.02316 -66.281876,-66.01303 -3.038522,-4.06493 -3.056829,-9.91585 -0.04382,-14.00604 0.352795,-0.47892 3.022409,-3.29761 5.998276,-6.33323 5.185951,-5.29008 39.054022,-39.908079 52.107402,-53.2612 3.795351,-3.882503 6.747607,-6.812374 7.255184,-7.200172 4.119908,-3.147677 9.901398,-3.182383 13.978988,-0.08392 0.60921,0.462928 18.82024,18.545807 59.42965,59.011452 3.32244,3.31067 6.31318,6.36404 6.64609,6.78524 3.24065,4.10008 3.24631,10.33493 0.0131,14.42459 -0.48575,0.61442 -16.24728,16.77685 -42.53191,43.6137 -2.26929,2.31698 -8.05255,8.22508 -12.85169,13.12913 -4.79914,4.90404 -9.07457,9.21183 -9.50097,9.57286 -2.31015,1.95602 -5.78129,2.97083 -8.77203,2.56455 z m 4.17585,-3.15431 c 2.395,-0.81198 0.84386,0.64607 18.16947,-17.07901 6.67564,-6.82956 15.60487,-15.96188 19.84275,-20.29406 18.47613,-18.88726 24.65411,-25.20382 26.85841,-27.46086 6.0122,-6.15605 5.97798,-10.22619 -0.13704,-16.30144 -1.27201,-1.26374 -4.36284,-4.34073 -6.86853,-6.83776 -7.23386,-7.20889 -12.08943,-12.04342 -21.1501,-21.058484 -4.6531,-4.629664 -10.46133,-10.413042 -12.90718,-12.85195 -2.44586,-2.438907 -6.25293,-6.232951 -8.46017,-8.431207 -2.20724,-2.198256 -6.06312,-6.042815 -8.56863,-8.543465 -4.55027,-4.541435 -5.25327,-5.158755 -6.59702,-5.792991 -2.87265,-1.355859 -6.48698,-0.985703 -9.02693,0.924481 -0.360778,0.271324 -7.364513,7.351422 -15.563856,15.733551 -8.199343,8.382128 -16.740208,17.111044 -18.979699,19.397591 -2.239491,2.286547 -7.87511,8.046674 -12.523598,12.800284 -4.648487,4.75362 -10.458886,10.68606 -12.911998,13.18321 -4.311212,4.38861 -5.126775,5.31806 -5.730372,6.53061 -1.147657,2.3055 -1.177611,5.39017 -0.07541,7.76607 0.791527,1.70621 -2.082099,-1.22048 36.941781,37.62401 31.531192,31.38625 29.256772,29.14208 30.071792,29.67193 2.2364,1.4539 5.17487,1.84723 7.61633,1.01949 z"
       id="path152" /><path
       style="fill:#695004"
       d="m 104.09916,208.03562 c -2.66971,-0.48918 -4.459549,-1.50378 -6.827744,-3.87043 -0.71586,-0.71539 -14.894775,-14.82552 -31.5087,-31.35584 -34.279009,-34.10652 -32.321542,-32.13552 -33.126071,-33.35513 -2.255034,-3.4185 -2.601265,-7.64839 -0.932747,-11.39537 0.752179,-1.68917 1.357301,-2.41938 5.532007,-6.67557 2.18375,-2.22638 13.336835,-13.62356 24.784633,-25.327068 35.88641,-36.688017 35.660858,-36.459202 36.551685,-37.08037 4.378787,-3.0533 10.141207,-2.818062 14.138907,0.577189 1.09582,0.930682 65.15512,64.833319 65.64836,65.487809 3.87474,5.1415 3.08282,11.08957 -2.19786,16.50794 -1.88924,1.9385 -29.7789,30.45348 -42.33961,43.28892 -4.12191,4.21206 -10.30156,10.52844 -13.73255,14.0364 -3.46425,3.54195 -6.59193,6.64653 -7.03372,6.98177 -2.51008,1.90467 -5.9238,2.73546 -8.95659,2.17975 z m 4.18797,-2.78212 c 2.44754,-0.63249 2.40195,-0.59332 11.50474,-9.8842 36.49622,-37.25034 55.90636,-57.12706 56.35789,-57.71261 2.26966,-2.94336 2.50473,-7.00014 0.59388,-10.24925 -0.56705,-0.96418 -0.6828,-1.08599 -7.12732,-7.50054 -2.26669,-2.25614 -6.29406,-6.26853 -8.94972,-8.91644 -2.65566,-2.6479 -6.75559,-6.73153 -9.11095,-9.07474 -2.35536,-2.343209 -6.18601,-6.160821 -8.51256,-8.483582 -5.24845,-5.239912 -27.99469,-27.866722 -30.42575,-30.265999 -4.12781,-4.073843 -8.05546,-4.804307 -12.14492,-2.258715 -0.987698,0.614822 0.0438,-0.420803 -20.297334,20.379224 -8.797278,8.995758 -22.356688,22.854532 -30.132023,30.797272 -7.775334,7.94275 -14.402608,14.76136 -14.727275,15.15248 -2.516407,3.03147 -2.64179,7.66906 -0.2975,11.00375 0.271615,0.38637 7.322636,7.49337 16.826198,16.9598 42.819909,42.65257 48.210964,48.00696 48.804344,48.47245 2.1015,1.64856 5.0308,2.25491 7.6383,1.5811 z"
       id="path151" /><path
       style="fill:#493703"
       d="m 104.64695,208.07215 c -3.83311,-0.48294 -4.0876,-0.67712 -14.534137,-11.08986 -4.712747,-4.6975 -18.281554,-18.20703 -30.152904,-30.02118 -30.18862,-30.04316 -27.404238,-27.13543 -28.408931,-29.66741 -2.102247,-5.29797 -0.886855,-9.09579 4.75909,-14.87108 20.624458,-21.09695 46.158965,-47.198929 56.727895,-57.988593 6.641143,-6.779844 7.780807,-7.474589 12.259767,-7.473596 3.86724,8.57e-4 5.71251,0.922009 9.59904,4.791788 1.28258,1.277059 15.85147,15.782646 32.3753,32.23464 16.52384,16.451991 30.24825,30.144771 30.49869,30.428401 3.46847,3.92806 3.80259,10.08543 0.78035,14.38089 -0.62303,0.88551 -0.81222,1.08368 -9.80076,10.26638 -10.46067,10.68663 -30.73892,31.41142 -44.02922,44.99879 -6.02053,6.1551 -11.26746,11.43725 -11.65984,11.7381 -2.31218,1.77281 -5.51531,2.63799 -8.41434,2.27273 z m 3.2397,-2.66538 c 1.41684,-0.30278 2.61417,-0.86308 3.7562,-1.75776 0.69306,-0.54294 0.2485,-0.091 25.98395,-26.41328 10.85342,-11.10089 23.9426,-24.48298 29.08707,-29.73796 9.97993,-10.19434 10.09931,-10.32822 10.76691,-12.07436 1.13517,-2.96913 0.6473,-6.44076 -1.24624,-8.8681 -0.73726,-0.94509 -64.87375,-64.776851 -65.68694,-65.374841 -3.0259,-2.225121 -7.13901,-2.303533 -10.28192,-0.196013 -0.847282,0.568154 -1.710914,1.438919 -22.198811,22.382133 -6.976077,7.131111 -19.387964,19.818781 -27.58197,28.194811 -8.194007,8.37603 -15.103479,15.49581 -15.354382,15.82173 -2.562254,3.32829 -2.457692,8.20767 0.244255,11.39812 1.113165,1.31443 64.914908,64.74554 65.545478,65.16471 2.14436,1.4255 4.66162,1.95335 6.9664,1.46081 z"
       id="path150" /><path
       style="fill:#342703"
       d="m 104.25858,207.97553 c -1.85377,-0.31646 -3.85778,-1.20747 -5.251745,-2.33498 -0.861928,-0.69717 -64.313815,-63.83194 -65.460748,-65.13359 -3.477995,-3.94716 -3.709411,-10.1541 -0.539302,-14.46495 0.356014,-0.48412 6.162878,-6.50308 13.94429,-14.45361 7.333824,-7.49321 20.530949,-20.982742 29.326945,-29.97674 8.795996,-8.993998 17.191085,-17.575154 18.655754,-19.069237 3.036033,-3.097004 3.608275,-3.574354 5.266166,-4.392909 4.23076,-2.088873 9.19466,-1.443701 12.6401,1.642872 0.48298,0.432674 39.39749,39.14529 55.69202,55.403074 2.32654,2.3213 5.31984,5.3032 6.65176,6.62644 4.54321,4.51357 5.83368,7.27723 5.35156,11.46082 -0.48474,4.20625 -0.33548,4.01214 -13.19642,17.16186 -13.83767,14.14837 -43.1732,44.12997 -49.02077,50.10037 -5.49477,5.61019 -6.11277,6.11212 -8.56151,6.95352 -1.56278,0.53698 -3.93924,0.74318 -5.4981,0.47706 z m 4.12412,-2.6367 c 2.40651,-0.62015 2.41933,-0.63136 12.4888,-10.92592 4.67784,-4.78241 16.06618,-16.42575 25.30742,-25.87409 9.24124,-9.44834 18.66168,-19.07423 20.93432,-21.39086 10.59001,-10.79499 10.31932,-10.46291 10.86503,-13.32958 0.68122,-3.57857 -0.2728,-5.92389 -3.90797,-9.60717 -7.07867,-7.17235 -62.86909,-62.594777 -63.43037,-63.011987 -3.22151,-2.394611 -7.68616,-2.375242 -10.819617,0.04694 -0.72938,0.563816 -1.120583,0.958754 -13.944802,14.07796 -7.104404,7.267821 -21.91547,22.408808 -40.828234,41.737687 -9.18237,9.3844 -10.037722,10.28652 -10.503967,11.07824 -1.830687,3.10865 -1.757169,6.85122 0.193485,9.84973 0.595676,0.91567 -0.271102,0.0455 38.356645,38.50553 14.851659,14.78716 27.27034,27.08838 27.59707,27.33604 2.13984,1.62199 5.04129,2.1906 7.69219,1.50748 z"
       id="path149" /><path
       style="fill:#010100"
       d="m 104.84061,207.96581 c -1.90128,-0.22326 -4.18286,-1.12834 -5.616847,-2.22814 -1.095615,-0.84029 -65.44026,-64.97175 -66.164203,-65.945 -2.896921,-3.89451 -2.928864,-9.5603 -0.0767,-13.60484 0.340264,-0.48251 5.616477,-5.95528 13.978735,-14.49948 7.387695,-7.54843 20.626681,-21.08304 29.41997,-30.076914 20.594161,-21.063939 21.55952,-22.034818 22.571042,-22.700092 3.313833,-2.179497 7.585573,-2.50022 11.110283,-0.834161 1.74142,0.823133 2.37028,1.360475 7.05738,6.030379 2.44586,2.43688 6.35048,6.326751 8.67694,8.644157 2.32647,2.317405 6.15795,6.137204 8.5144,8.48844 2.35646,2.351237 6.21241,6.190672 8.56879,8.532078 4.15448,4.128098 7.73649,7.695124 17.35419,17.281613 2.53533,2.52712 6.41562,6.39035 8.62286,8.58497 8.52112,8.4724 9.10122,9.07278 9.76599,10.10736 2.52338,3.92709 2.52256,8.80167 -0.002,12.71741 -0.65515,1.01613 -0.81414,1.18354 -10.68893,11.25537 -2.30081,2.34672 -7.6443,7.81146 -11.87443,12.14386 -4.23012,4.33241 -9.64514,9.87099 -12.03337,12.30797 -2.38823,2.43698 -6.22392,6.35091 -8.52376,8.69763 -2.29984,2.34672 -7.64476,7.8104 -11.87759,12.14151 -10.32717,10.56694 -10.07513,10.31616 -11.03379,10.97853 -1.5742,1.08767 -3.38966,1.7634 -5.3214,1.98067 -1.15036,0.12939 -1.29904,0.12918 -2.42743,-0.003 z m 3.45998,-2.54865 c 1.22606,-0.31372 2.53339,-0.95448 3.41417,-1.67341 0.71626,-0.58463 2.17032,-2.06426 30.4598,-30.99521 10.91447,-11.16196 21.92079,-22.41145 24.45849,-24.99886 7.98383,-8.14022 9.60051,-9.82962 9.99835,-10.4481 2.29099,-3.56156 2.07166,-8.0208 -0.54653,-11.11128 -1.37096,-1.61829 -64.93858,-64.767724 -65.73252,-65.300115 -2.69549,-1.807492 -6.08219,-2.05541 -9.00392,-0.659115 -1.667823,0.797052 -0.56806,-0.268386 -15.578425,15.092175 -4.233164,4.331923 -11.528141,11.790986 -16.21106,16.575695 -4.68292,4.784709 -11.981065,12.24373 -16.218101,16.57561 -4.237037,4.33187 -10.047049,10.27029 -12.911139,13.19647 -3.542177,3.61898 -5.375267,5.57266 -5.732261,6.10936 -2.315619,3.4813 -2.012176,8.20243 0.721559,11.22641 0.493543,0.54594 11.677802,11.6986 51.602595,51.45682 13.168532,13.11359 13.338362,13.27951 14.100282,13.77545 2.05659,1.33866 4.7949,1.78804 7.17871,1.1781 z"
       id="path148" /></g><g
     inkscape:label="Layer 1"
     inkscape:groupmode="layer"
     id="layer1"><text
       xml:space="preserve"
       style="font-style:normal;font-variant:normal;font-weight:normal;font-stretch:normal;font-size:85.31px;font-family:Sakana;-inkscape-font-specification:'Sakana, Normal';font-variant-ligatures:normal;font-variant-caps:normal;font-variant-numeric:normal;font-variant-east-asian:normal;text-align:start;writing-mode:lr-tb;direction:ltr;text-anchor:start;fill:#000000;stroke-width:7.10916"
       x="68.90033"
       y="144.84586"
       id="text1"
       transform="scale(1.0259189,0.97473592)"><tspan
         sodipodi:role="line"
         id="tspan1"
         style="font-style:normal;font-variant:normal;font-weight:normal;font-stretch:normal;font-size:85.31px;font-family:Sakana;-inkscape-font-specification:'Sakana, Normal';font-variant-ligatures:normal;font-variant-caps:normal;font-variant-numeric:normal;font-variant-east-asian:normal;stroke-width:7.10916"
         x="68.90033"
         y="144.84586">A</tspan></text></g></svg>
